<?xml version="1.0" encoding="utf-8"?>
<!-- Generator: Adobe Illustrator 25.4.1, SVG Export Plug-In . SVG Version: 6.00 Build 0)  -->
<svg version="1.1" id="Layer_1" xmlns="http://www.w3.org/2000/svg" xmlns:xlink="http://www.w3.org/1999/xlink" x="0px" y="0px"
	 viewBox="0 0 605.7 598.3" style="enable-background:new 0 0 605.7 598.3;" xml:space="preserve">
<style type="text/css">
	.st0{clip-path:url(#SVGID_00000018936331693162359080000017958074482602740631_);}
	.st1{fill:#0099B8;}
	.st2{fill:#0091AD;}
	.st3{fill:#1780A1;}
	.st4{fill:#2E6F95;}
	.st5{fill:#455E89;}
	.st6{fill:#5C4D7D;}
	.st7{fill:#723C70;}
	.st8{fill:#892B64;}
	.st9{fill:#A01A58;}
	.st10{fill:#B7094C;}
</style>
<g>
	<defs>
		<path id="SVGID_1_" d="M153.2,214.8l167.3-80.9c32.5-15.7,71.1-6.2,85,22.3L496.2,342c16.1,33.1-4.1,68.5-43.4,78.1l-199.9,48.5
			c-27.9,6.8-57.9-10.1-68-37l-57.6-153.3C118.3,254.3,129.6,226.3,153.2,214.8z"/>
	</defs>
	<clipPath id="SVGID_00000009559385324151270730000007792030694184379574_">
		<use xlink:href="#SVGID_1_"  style="overflow:visible;"/>
	</clipPath>
	<g style="clip-path:url(#SVGID_00000009559385324151270730000007792030694184379574_);">
		<polygon class="st1" points="129.6,140.6 128.1,469.5 94.1,465.3 95.5,146.3 		"/>
		<polygon class="st2" points="165,135 163.5,474.1 127.3,469.7 128.8,141 		"/>
		<polygon class="st3" points="202.7,129 201.1,479.1 162.6,474.3 164.1,135.4 		"/>
		<polygon class="st4" points="242.9,122.6 241.2,484.4 200.2,479.3 201.8,129.4 		"/>
		<polygon class="st5" points="285.9,115.7 284.1,490.1 240.2,484.6 241.9,123.1 		"/>
		<polygon class="st6" points="332,108.4 330.1,496.2 283.1,490.3 284.9,116.2 		"/>
		<polygon class="st7" points="381.5,100.5 379.4,502.7 328.9,496.4 330.9,108.9 		"/>
		<polygon class="st8" points="434.9,92 432.6,509.7 378.2,502.9 380.3,101.1 		"/>
		<polygon class="st9" points="492.5,82.9 490.1,517.3 431.3,509.9 433.6,92.6 		"/>
		<polygon class="st10" points="556,72.3 553.3,525.3 489.6,517.3 492,82.9 		"/>
	</g>
</g>
</svg>
