<?xml version="1.0" encoding="utf-8"?>
<!-- Generator: Adobe Illustrator 25.4.1, SVG Export Plug-In . SVG Version: 6.00 Build 0)  -->
<svg version="1.1" id="Layer_1" xmlns="http://www.w3.org/2000/svg" xmlns:xlink="http://www.w3.org/1999/xlink" x="0px" y="0px"
	 viewBox="0 0 228.8 219.2" style="enable-background:new 0 0 228.8 219.2;" xml:space="preserve">
<style type="text/css">
	.st0{clip-path:url(#SVGID_00000061433669373472216600000001897584844689304739_);}
	.st1{fill:#99E2B4;}
	.st2{fill:#88D4AB;}
	.st3{fill:#78C6A3;}
	.st4{fill:#67B99A;}
	.st5{fill:#56AB91;}
	.st6{fill:#469D89;}
	.st7{fill:#358F80;}
	.st8{fill:#248277;}
	.st9{fill:#14746F;}
	.st10{fill:#036666;}
</style>
<g>
	<defs>
		<path id="SVGID_1_" d="M52.1,57.2l111.7-28.1c14.3-3.6,28.8,5.1,32.4,19.4c1,4,1.1,8.2,0.2,12.3l-27.7,125.7
			c-4.7,21.5-32,28.3-46.3,11.7l-84-97.6c-9.6-11.2-8.3-28,2.8-37.7C44.4,60.1,48.1,58.2,52.1,57.2z"/>
	</defs>
	<clipPath id="SVGID_00000118374434767255569440000017131298382697120185_">
		<use xlink:href="#SVGID_1_"  style="overflow:visible;"/>
	</clipPath>
	<g style="clip-path:url(#SVGID_00000118374434767255569440000017131298382697120185_);">
		
			<rect x="132.7" y="-70.2" transform="matrix(0.3373 -0.9414 0.9414 0.3373 73.2847 149.8655)" class="st1" width="20.7" height="186.2"/>
		
			<rect x="125.8" y="-50.7" transform="matrix(0.3373 -0.9414 0.9414 0.3373 50.3286 156.2036)" class="st2" width="20.7" height="186.2"/>
		
			<rect x="118.8" y="-31.3" transform="matrix(0.3373 -0.9414 0.9414 0.3373 27.3714 162.5424)" class="st3" width="20.7" height="186.2"/>
		
			<rect x="111.8" y="-11.8" transform="matrix(0.3373 -0.9414 0.9414 0.3373 4.4157 168.8817)" class="st4" width="20.7" height="186.2"/>
		
			<rect x="104.8" y="7.7" transform="matrix(0.3373 -0.9414 0.9414 0.3373 -18.5415 175.2205)" class="st5" width="20.7" height="186.2"/>
		
			<rect x="97.9" y="27.2" transform="matrix(0.3373 -0.9414 0.9414 0.3373 -41.4976 181.5585)" class="st6" width="20.7" height="186.2"/>
		
			<rect x="90.9" y="46.6" transform="matrix(0.3373 -0.9414 0.9414 0.3373 -64.4534 187.8979)" class="st7" width="20.7" height="186.2"/>
		
			<rect x="83.9" y="66.1" transform="matrix(0.3373 -0.9414 0.9414 0.3373 -87.4105 194.2367)" class="st8" width="20.7" height="186.2"/>
		
			<rect x="76.9" y="85.6" transform="matrix(0.3373 -0.9414 0.9414 0.3373 -110.3666 200.5747)" class="st9" width="20.7" height="186.2"/>
		
			<rect x="70" y="105.1" transform="matrix(0.3373 -0.9414 0.9414 0.3373 -133.3234 206.9148)" class="st10" width="20.7" height="186.2"/>
	</g>
</g>
</svg>
