<?xml version="1.0" encoding="utf-8"?>
<!-- Generator: Adobe Illustrator 25.4.1, SVG Export Plug-In . SVG Version: 6.00 Build 0)  -->
<svg version="1.1" id="Layer_1" xmlns="http://www.w3.org/2000/svg" xmlns:xlink="http://www.w3.org/1999/xlink" x="0px" y="0px"
	 viewBox="0 0 228.8 219.2" style="enable-background:new 0 0 228.8 219.2;" xml:space="preserve">
<style type="text/css">
	.st0{clip-path:url(#SVGID_00000074424072692504721320000002646120586308754096_);}
	.st1{fill:#99E2B4;}
	.st2{fill:#88D4AB;}
	.st3{fill:#78C6A3;}
	.st4{fill:#67B99A;}
	.st5{fill:#56AB91;}
	.st6{fill:#469D89;}
	.st7{fill:#358F80;}
	.st8{fill:#248277;}
	.st9{fill:#14746F;}
	.st10{fill:#036666;}
</style>
<g>
	<defs>
		<path id="SVGID_1_" d="M45.4,45.5l111.7-28.1c14.3-3.6,28.8,5.1,32.4,19.4c1,4,1.1,8.2,0.2,12.3l-27.7,125.7
			c-4.7,21.5-32,28.3-46.3,11.7l-84-97.6c-9.6-11.2-8.3-28,2.8-37.7C37.7,48.4,41.4,46.5,45.4,45.5z"/>
	</defs>
	<clipPath id="SVGID_00000180357552905038521190000001794733374942717824_">
		<use xlink:href="#SVGID_1_"  style="overflow:visible;"/>
	</clipPath>
	<g style="clip-path:url(#SVGID_00000180357552905038521190000001794733374942717824_);">
		
			<rect x="126" y="-77.9" transform="matrix(0.3373 -0.9414 0.9414 0.3373 76.1144 138.4432)" class="st1" width="20.7" height="186.2"/>
		
			<rect x="119.1" y="-59" transform="matrix(0.3373 -0.9414 0.9414 0.3373 53.629 144.4499)" class="st2" width="20.7" height="186.2"/>
		
			<rect x="112.1" y="-40" transform="matrix(0.3373 -0.9414 0.9414 0.3373 31.1426 150.4573)" class="st3" width="20.7" height="186.2"/>
		
			<rect x="105.1" y="-21" transform="matrix(0.3373 -0.9414 0.9414 0.3373 8.6575 156.4652)" class="st4" width="20.7" height="186.2"/>
		
			<rect x="98.1" y="-2" transform="matrix(0.3373 -0.9414 0.9414 0.3373 -13.8289 162.4727)" class="st5" width="20.7" height="186.2"/>
		
			<rect x="91.2" y="16.9" transform="matrix(0.3373 -0.9414 0.9414 0.3373 -36.3143 168.4793)" class="st6" width="20.7" height="186.2"/>
		
			<rect x="84.2" y="35.9" transform="matrix(0.3373 -0.9414 0.9414 0.3373 -58.7994 174.4873)" class="st7" width="20.7" height="186.2"/>
		
			<rect x="77.2" y="54.9" transform="matrix(0.3373 -0.9414 0.9414 0.3373 -81.2858 180.4947)" class="st8" width="20.7" height="186.2"/>
		
			<rect x="70.2" y="73.9" transform="matrix(0.3373 -0.9414 0.9414 0.3373 -103.7712 186.5014)" class="st9" width="20.7" height="186.2"/>
		
			<rect x="63.3" y="93.3" transform="matrix(0.3373 -0.9414 0.9414 0.3373 -126.728 192.8415)" class="st10" width="20.7" height="186.2"/>
	</g>
</g>
</svg>
